<svg width="512" height="512" xmlns="http://www.w3.org/2000/svg">

 <g>
  <title>background</title>
  <rect fill="none" id="canvas_background" height="402" width="582" y="-1" x="-1"/>
 </g>
 <g>
  <title>Layer 1</title>
  <path fill="#ffffff" id="svg_1" d="m320,336c0,8.84 -7.16,16 -16,16l-96,0c-8.84,0 -16,-7.16 -16,-16l0,-48l-192,0l0,144c0,25.6 22.4,48 48,48l416,0c25.6,0 48,-22.4 48,-48l0,-144l-192,0l0,48zm144,-208l-80,0l0,-48c0,-25.6 -22.4,-48 -48,-48l-160,0c-25.6,0 -48,22.4 -48,48l0,48l-80,0c-25.6,0 -48,22.4 -48,48l0,80l512,0l0,-80c0,-25.6 -22.4,-48 -48,-48zm-144,0l-128,0l0,-32l128,0l0,32z"/>
 </g>
</svg>