<svg width="448" height="512" xmlns="http://www.w3.org/2000/svg">

 <g>
  <title>background</title>
  <rect fill="none" id="canvas_background" height="402" width="582" y="-1" x="-1"/>
 </g>
 <g>
  <title>Layer 1</title>
  <path fill="#ffffff" id="svg_1" d="m448,360l0,-336c0,-13.3 -10.7,-24 -24,-24l-328,0c-53,0 -96,43 -96,96l0,320c0,53 43,96 96,96l328,0c13.3,0 24,-10.7 24,-24l0,-16c0,-7.5 -3.5,-14.3 -8.9,-18.7c-4.2,-15.4 -4.2,-59.3 0,-74.7c5.4,-4.3 8.9,-11.1 8.9,-18.6zm-320,-226c0,-3.3 2.7,-6 6,-6l212,0c3.3,0 6,2.7 6,6l0,20c0,3.3 -2.7,6 -6,6l-212,0c-3.3,0 -6,-2.7 -6,-6l0,-20zm0,64c0,-3.3 2.7,-6 6,-6l212,0c3.3,0 6,2.7 6,6l0,20c0,3.3 -2.7,6 -6,6l-212,0c-3.3,0 -6,-2.7 -6,-6l0,-20zm253.4,250l-285.4,0c-17.7,0 -32,-14.3 -32,-32c0,-17.6 14.4,-32 32,-32l285.4,0c-1.9,17.1 -1.9,46.9 0,64z"/>
  <path d="m113.5,176.4375c0,-1 -0.141899,-3.986832 -1,-14c-1.198418,-13.984406 -2,-21 -2,-24c0,-2 0,-3 0,-7c0,-7 -0.659843,-15.02726 0,-23c0.501709,-6.062035 2,-8 2,-9c0,-1 0.770248,-1.026749 1,-2c0.513741,-2.176254 1.617317,-3.076118 2,-4c0.541199,-1.306564 1,-1 2,-1c2,0 8.392227,-1.055702 15,2c9.817703,4.540108 17.112137,14.918304 20,19c2.082474,2.943352 2,4 2,6c0,0 0,1 0,1c0,0 0,0 0,0c0,0 1,0 1,0l0,-1l0,0l0,0" id="svg_2" stroke-opacity="null" stroke-width="null" stroke="null" fill="none"/>
 </g>
</svg>